{
	"asset":{
		"version":"2.0",
		"generator":"Created using the official Cinema 4D glTF Exporter 1.000x287526"
	},
	"scenes":[{
		"nodes":[0,
		12]
	}],
	"nodes":[{
		"name":"01",
		"children":[1,
		2,
		3,
		4,
		5,
		6,
		7,
		8,
		9,
		10,
		11]
	},
	{
		"name":"02",
		"translation":[-0.5984705090522766,
		0.26669827103614809,
		0.31526318192481997],
		"rotation":[0.0,
		0.0,
		0.0,
		-1.0],
		"scale":[1.0,
		1.0,
		1.0]
	},
	{
		"name":"03",
		"translation":[-0.5984705090522766,
		0.26669827103614809,
		0.794776201248169],
		"rotation":[0.0,
		0.0,
		0.0,
		-1.0],
		"scale":[1.0,
		1.0,
		1.0]
	},
	{
		"name":"04",
		"translation":[0.18117885291576386,
		0.26669827103614809,
		0.794776201248169],
		"rotation":[0.0,
		0.0,
		0.0,
		-1.0],
		"scale":[1.0,
		1.0,
		1.0]
	},
	{
		"name":"05",
		"translation":[0.8838492631912231,
		0.26669827103614809,
		0.794776201248169],
		"rotation":[0.0,
		0.0,
		0.0,
		-1.0],
		"scale":[1.0,
		1.0,
		1.0]
	},
	{
		"name":"06",
		"translation":[0.8838492631912231,
		0.26669827103614809,
		0.2827715575695038],
		"rotation":[0.0,
		0.0,
		0.0,
		-1.0],
		"scale":[1.0,
		1.0,
		1.0]
	},
	{
		"name":"07",
		"translation":[0.3722277879714966,
		0.26669827103614809,
		0.2827715575695038],
		"rotation":[0.0,
		0.0,
		0.0,
		-1.0],
		"scale":[1.0,
		1.0,
		1.0]
	},
	{
		"name":"08",
		"translation":[0.3722277879714966,
		0.26669827103614809,
		-0.404467910528183],
		"rotation":[0.0,
		0.0,
		0.0,
		-1.0],
		"scale":[1.0,
		1.0,
		1.0]
	},
	{
		"name":"09",
		"translation":[-0.39826032519340517,
		0.26669827103614809,
		-0.404467910528183],
		"rotation":[0.0,
		0.0,
		0.0,
		-1.0],
		"scale":[1.0,
		1.0,
		1.0]
	},
	{
		"name":"10",
		"translation":[-0.5173137187957764,
		0.26669827103614809,
		0.0],
		"rotation":[0.0,
		0.0,
		0.0,
		-1.0],
		"scale":[1.0,
		1.0,
		1.0]
	},
	{
		"name":"11",
		"translation":[-1.100838303565979,
		0.26669827103614809,
		0.31526318192481997],
		"rotation":[0.0,
		0.0,
		0.0,
		-1.0],
		"scale":[1.0,
		1.0,
		1.0]
	},
	{
		"name":"12",
		"translation":[-1.100838303565979,
		0.26669827103614809,
		0.027458153665065767],
		"rotation":[0.0,
		0.0,
		0.0,
		-1.0],
		"scale":[1.0,
		1.0,
		1.0]
	},
	{
		"name":"00",
		"translation":[-0.10849452018737793,
		0.26669827103614809,
		0.1951541304588318],
		"rotation":[0.0,
		0.0,
		0.0,
		-1.0],
		"scale":[1.0,
		1.0,
		1.0],
		"mesh":0,
		"skin":0
	}],
	"meshes":[{
		"primitives":[{
			"attributes":{
				"POSITION":23,
				"NORMAL":24,
				"TEXCOORD_0":25,
				"JOINTS_0":26,
				"WEIGHTS_0":27
			},
			"indices":22,
			"material":0
		}]
	}],
	"skins":[{
		"inverseBindMatrices":28,
		"joints":[0,
		1,
		2,
		3,
		4,
		5,
		6,
		7,
		8,
		9,
		10,
		11]
	}],
	"accessors":[{
		"bufferView":0,
		"type":"SCALAR",
		"componentType":5126,
		"count":301,
		"byteOffset":0,
		"min":[0.0],
		"max":[10.0]
	},
	{
		"bufferView":0,
		"type":"VEC3",
		"componentType":5126,
		"count":301,
		"byteOffset":1204,
		"min":[-1.6096782684326172,
		0.26669827103614809,
		-0.48082587122917178],
		"max":[-0.1305982619524002,
		0.26669827103614809,
		0.6511231064796448]
	},
	{
		"bufferView":1,
		"type":"SCALAR",
		"componentType":5126,
		"count":301,
		"byteOffset":0,
		"min":[0.0],
		"max":[10.0]
	},
	{
		"bufferView":1,
		"type":"VEC3",
		"componentType":5126,
		"count":301,
		"byteOffset":1204,
		"min":[-1.4847606420516968,
		0.26669827103614809,
		0.794776201248169],
		"max":[0.09997071325778961,
		0.26669827103614809,
		1.564502239227295]
	},
	{
		"bufferView":2,
		"type":"SCALAR",
		"componentType":5126,
		"count":301,
		"byteOffset":0,
		"min":[0.0],
		"max":[10.0]
	},
	{
		"bufferView":2,
		"type":"VEC3",
		"componentType":5126,
		"count":301,
		"byteOffset":1204,
		"min":[-0.10558155179023743,
		0.26669827103614809,
		0.605224072933197],
		"max":[1.1018307209014893,
		0.26669827103614809,
		1.3900420665740967]
	},
	{
		"bufferView":3,
		"type":"SCALAR",
		"componentType":5126,
		"count":301,
		"byteOffset":0,
		"min":[0.0],
		"max":[10.0]
	},
	{
		"bufferView":3,
		"type":"VEC3",
		"componentType":5126,
		"count":301,
		"byteOffset":1204,
		"min":[0.8838492631912231,
		0.26669827103614809,
		0.34199658036231997],
		"max":[2.003537893295288,
		0.26669827103614809,
		1.2022777795791627]
	},
	{
		"bufferView":4,
		"type":"SCALAR",
		"componentType":5126,
		"count":301,
		"byteOffset":0,
		"min":[0.0],
		"max":[10.0]
	},
	{
		"bufferView":4,
		"type":"VEC3",
		"componentType":5126,
		"count":301,
		"byteOffset":1204,
		"min":[0.41597700119018557,
		0.26669827103614809,
		-0.4985004663467407],
		"max":[1.472462773323059,
		0.26669827103614809,
		0.6787264943122864]
	},
	{
		"bufferView":5,
		"type":"SCALAR",
		"componentType":5126,
		"count":301,
		"byteOffset":0,
		"min":[0.0],
		"max":[10.0]
	},
	{
		"bufferView":5,
		"type":"VEC3",
		"componentType":5126,
		"count":301,
		"byteOffset":1204,
		"min":[0.20620858669281007,
		0.26669827103614809,
		-0.30584192276000979],
		"max":[1.3381575345993043,
		0.26669827103614809,
		0.6449980139732361]
	},
	{
		"bufferView":6,
		"type":"SCALAR",
		"componentType":5126,
		"count":301,
		"byteOffset":0,
		"min":[0.0],
		"max":[10.0]
	},
	{
		"bufferView":6,
		"type":"VEC3",
		"componentType":5126,
		"count":301,
		"byteOffset":1204,
		"min":[-0.09564447402954102,
		0.26669827103614809,
		-0.9930821061134338],
		"max":[0.6740808486938477,
		0.26669827103614809,
		-0.19316940009593965]
	},
	{
		"bufferView":7,
		"type":"SCALAR",
		"componentType":5126,
		"count":301,
		"byteOffset":0,
		"min":[0.0],
		"max":[10.0]
	},
	{
		"bufferView":7,
		"type":"VEC3",
		"componentType":5126,
		"count":301,
		"byteOffset":1204,
		"min":[-0.8057619333267212,
		0.26669827103614809,
		-1.0383594036102296],
		"max":[-0.09640725702047348,
		0.26669827103614809,
		-0.3742826282978058]
	},
	{
		"bufferView":8,
		"type":"SCALAR",
		"componentType":5126,
		"count":301,
		"byteOffset":0,
		"min":[0.0],
		"max":[10.0]
	},
	{
		"bufferView":8,
		"type":"VEC3",
		"componentType":5126,
		"count":301,
		"byteOffset":1204,
		"min":[-0.939907968044281,
		0.26669827103614809,
		-0.7546326518058777],
		"max":[0.37315285205841067,
		0.26669827103614809,
		0.2565751075744629]
	},
	{
		"bufferView":9,
		"type":"SCALAR",
		"componentType":5126,
		"count":301,
		"byteOffset":0,
		"min":[0.0],
		"max":[10.0]
	},
	{
		"bufferView":9,
		"type":"VEC3",
		"componentType":5126,
		"count":301,
		"byteOffset":1204,
		"min":[-1.5536178350448609,
		0.26669827103614809,
		-0.07714581489562988],
		"max":[-0.6933366656303406,
		0.26669827103614809,
		1.1755443811416627]
	},
	{
		"bufferView":10,
		"type":"SCALAR",
		"componentType":5126,
		"count":301,
		"byteOffset":0,
		"min":[0.0],
		"max":[10.0]
	},
	{
		"bufferView":10,
		"type":"VEC3",
		"componentType":5126,
		"count":301,
		"byteOffset":1204,
		"min":[-1.5988999605178834,
		0.26669827103614809,
		-0.5611553192138672],
		"max":[-0.4216688871383667,
		0.26669827103614809,
		0.4349597990512848]
	},
	{
		"bufferView":11,
		"type":"SCALAR",
		"componentType":5123,
		"count":396,
		"byteOffset":0,
		"min":[0],
		"max":[263]
	},
	{
		"bufferView":12,
		"type":"VEC3",
		"componentType":5126,
		"count":264,
		"byteOffset":0,
		"min":[-1.0173437595367432,
		-0.02500000037252903,
		-0.6246220469474793],
		"max":[1.0173437595367432,
		0.02500000037252903,
		0.6246220469474793]
	},
	{
		"bufferView":12,
		"type":"VEC3",
		"componentType":5126,
		"count":264,
		"byteOffset":12,
		"min":[-1.0,
		-1.0,
		-1.0],
		"max":[1.0,
		1.0,
		1.0]
	},
	{
		"bufferView":12,
		"type":"VEC2",
		"componentType":5126,
		"count":264,
		"byteOffset":24,
		"min":[0.0,
		0.0],
		"max":[1.0,
		1.0]
	},
	{
		"bufferView":13,
		"type":"VEC4",
		"componentType":5123,
		"count":264,
		"byteOffset":0,
		"min":[1,
		0,
		0,
		0],
		"max":[11,
		10,
		9,
		8]
	},
	{
		"bufferView":14,
		"type":"VEC4",
		"componentType":5126,
		"count":264,
		"byteOffset":0,
		"min":[1.0,
		0.0,
		0.0,
		0.0],
		"max":[1.0,
		0.0,
		0.0,
		0.0]
	},
	{
		"bufferView":15,
		"type":"MAT4",
		"componentType":5126,
		"count":12,
		"byteOffset":0,
		"min":[1.0,
		0.0,
		0.0,
		0.0,
		0.0,
		1.0,
		0.0,
		0.0,
		0.0,
		0.0,
		1.0,
		0.0,
		-0.9923437833786011,
		0.0,
		-0.5996220707893372,
		1.0],
		"max":[1.0,
		0.0,
		0.0,
		0.0,
		0.0,
		1.0,
		0.0,
		0.0,
		0.0,
		0.0,
		1.0,
		0.0,
		0.9923437833786011,
		0.26669827103614809,
		0.5996220707893372,
		1.0]
	}],
	"bufferViews":[{
		"buffer":0,
		"byteOffset":0,
		"byteLength":4816
	},
	{
		"buffer":1,
		"byteOffset":0,
		"byteLength":4816
	},
	{
		"buffer":2,
		"byteOffset":0,
		"byteLength":4816
	},
	{
		"buffer":3,
		"byteOffset":0,
		"byteLength":4816
	},
	{
		"buffer":4,
		"byteOffset":0,
		"byteLength":4816
	},
	{
		"buffer":5,
		"byteOffset":0,
		"byteLength":4816
	},
	{
		"buffer":6,
		"byteOffset":0,
		"byteLength":4816
	},
	{
		"buffer":7,
		"byteOffset":0,
		"byteLength":4816
	},
	{
		"buffer":8,
		"byteOffset":0,
		"byteLength":4816
	},
	{
		"buffer":9,
		"byteOffset":0,
		"byteLength":4816
	},
	{
		"buffer":10,
		"byteOffset":0,
		"byteLength":4816
	},
	{
		"buffer":11,
		"byteOffset":0,
		"byteLength":792,
		"target":34963
	},
	{
		"buffer":11,
		"byteOffset":792,
		"byteLength":8448,
		"target":34962,
		"byteStride":32
	},
	{
		"buffer":11,
		"byteOffset":9240,
		"byteLength":2112,
		"target":34962
	},
	{
		"buffer":11,
		"byteOffset":11352,
		"byteLength":4224,
		"target":34962
	},
	{
		"buffer":12,
		"byteOffset":0,
		"byteLength":768
	}],
	"buffers":[{
		"uri":"data:application/octet-stream;base64,",
		"byteLength":4816
	},
	{
		"uri":"data:application/octet-stream;base64,",
		"byteLength":4816
	},
	{
		"uri":"data:application/octet-stream;base64,",
		"byteLength":4816
	},
	{
		"uri":"data:application/octet-stream;base64,",
		"byteLength":4816
	},
	{
		"uri":"data:application/octet-stream;base64,",
		"byteLength":4816
	},
	{
		"uri":"data:application/octet-stream;base64,",
		"byteLength":4816
	},
	{
		"uri":"data:application/octet-stream;base64,",
		"byteLength":4816
	},
	{
		"uri":"data:application/octet-stream;base64,",
		"byteLength":4816
	},
	{
		"uri":"data:application/octet-stream;base64,",
		"byteLength":4816
	},
	{
		"uri":"data:application/octet-stream;base64,",
		"byteLength":4816
	},
	{
		"uri":"data:application/octet-stream;base64,",
		"byteLength":4816
	},
	{
		"uri":"data:application/octet-stream;base64,",
		"byteLength":15576
	},
	{
		"uri":"data:application/octet-stream;base64,",
		"byteLength":768
	}],
	"materials":[{
		"pbrMetallicRoughness":{
			"baseColorFactor":[1.0,
			1.0,
			1.0,
			1.0],
			"metallicFactor":1.0,
			"roughnessFactor":1.0
		},
		"emissiveFactor":[0.0,
		0.0,
		0.0],
		"alphaMode":"OPAQUE",
		"doubleSided":true,
		"name":""
	}],
	"animations":[{
		"samplers":[{
			"input":0,
			"interpolation":"LINEAR",
			"output":1
		},
		{
			"input":2,
			"interpolation":"LINEAR",
			"output":3
		},
		{
			"input":4,
			"interpolation":"LINEAR",
			"output":5
		},
		{
			"input":6,
			"interpolation":"LINEAR",
			"output":7
		},
		{
			"input":8,
			"interpolation":"LINEAR",
			"output":9
		},
		{
			"input":10,
			"interpolation":"LINEAR",
			"output":11
		},
		{
			"input":12,
			"interpolation":"LINEAR",
			"output":13
		},
		{
			"input":14,
			"interpolation":"LINEAR",
			"output":15
		},
		{
			"input":16,
			"interpolation":"LINEAR",
			"output":17
		},
		{
			"input":18,
			"interpolation":"LINEAR",
			"output":19
		},
		{
			"input":20,
			"interpolation":"LINEAR",
			"output":21
		}],
		"channels":[{
			"sampler":0,
			"target":{
				"node":1,
				"path":"translation"
			}
		},
		{
			"sampler":1,
			"target":{
				"node":2,
				"path":"translation"
			}
		},
		{
			"sampler":2,
			"target":{
				"node":3,
				"path":"translation"
			}
		},
		{
			"sampler":3,
			"target":{
				"node":4,
				"path":"translation"
			}
		},
		{
			"sampler":4,
			"target":{
				"node":5,
				"path":"translation"
			}
		},
		{
			"sampler":5,
			"target":{
				"node":6,
				"path":"translation"
			}
		},
		{
			"sampler":6,
			"target":{
				"node":7,
				"path":"translation"
			}
		},
		{
			"sampler":7,
			"target":{
				"node":8,
				"path":"translation"
			}
		},
		{
			"sampler":8,
			"target":{
				"node":9,
				"path":"translation"
			}
		},
		{
			"sampler":9,
			"target":{
				"node":10,
				"path":"translation"
			}
		},
		{
			"sampler":10,
			"target":{
				"node":11,
				"path":"translation"
			}
		}]
	}]
}